# xmcd
#
# Track frame offsets: 
#        150
#        21637
#        34720
#        45770
#        58669
#        73782
#        89665
#        103083
#        116831
#        130103
#        143902
#        156283
#        170012
#        182866
#        201183
#        213087
#        228339
#        241828
#        257977
#        275704
#        290121
#        303922
#        322446
#
# Disc length: 4495 seconds
#
# Revision: 4
# Processed by: cddbd v1.5.2PL0 Copyright (c) Steve Scherf et al.
# Submitted via: ExactAudioCopy v1.3
#
DISCID=6a118d17
DTITLE=Various Artist - Motown: The Complete No. 1's [CD3]
DYEAR=2008
DGENRE=R&B
TTITLE0=The Temptations - Run Away Child, Running Wild
TTITLE1=Marvin Gaye - Too Busy Thinking About My Baby
TTITLE2=Jr. Walker and The All-Stars - What Does It Take (To Win Your Lo
TTITLE2=ve)
TTITLE3=The Temptations - I Can't Get Next To You
TTITLE4=The Originals - Baby, I'm For Real
TTITLE5=Diana Ross and The Supremes - Someday We'll Be Together
TTITLE6=The Jackson 5 - I Want You Back
TTITLE7=Stevie Wonder - Yester-Me, Yester-You, Yesterday
TTITLE8=The Jackson 5 - ABC
TTITLE9=Diana Ross - Reach Out And Touch (Somebody's Hand)
TTITLE10=Four Tops - It's All The Game
TTITLE11=The Jackson 5 - The Love You Save
TTITLE12=Rare Earth - Get Ready
TTITLE13=The Temptations - Ball Of Confusion ( That's What The World I
TTITLE13=s Today)
TTITLE14=Stevie Wonder - Signed, Sealed, Delivered (I'm Yours)
TTITLE15=Edwin Starr - War
TTITLE16=Smokey Robinson and The Miracles - The Tears Of A Clown (U.K. V
TTITLE16=ersion)
TTITLE17=Diana Ross - Ain't No Mountain High Enough
TTITLE18=The Jackson 5 - I'll Be There
TTITLE19=Stevie Wonder - Heaven Help Us All
TTITLE20=Smokey Robinson and The Miracles - The Tears Of A Clown (U.S. V
TTITLE20=ersion)
TTITLE21=The Supremes - Stoned Love
TTITLE22=Gladys Knight and The Pips - If I Were Your Woman
EXTD=
EXTT0=
EXTT1=
EXTT2=
EXTT3=
EXTT4=
EXTT5=
EXTT6=
EXTT7=
EXTT8=
EXTT9=
EXTT10=
EXTT11=
EXTT12=
EXTT13=
EXTT14=
EXTT15=
EXTT16=
EXTT17=
EXTT18=
EXTT19=
EXTT20=
EXTT21=
EXTT22=
PLAYORDER=
